<svg xmlns="http://www.w3.org/2000/svg" width="60.187" height="60.224" viewBox="0 0 60.187 60.224"><defs><linearGradient id="a" x1=".5" x2=".5" y2="1" gradientUnits="objectBoundingBox"><stop offset="0" stop-color="#544cf9"/><stop offset="1" stop-color="#814cf9"/></linearGradient></defs><g data-name="035---Creative-Thinking" stroke="#544cf9" stroke-width=".2" fill="url(#a)" transform="translate(.118 .124)"><path d="M51.768 44a13.439 13.439 0 00-.024-5.1l4.58-11.053a.171.171 0 000-.022 18.78 18.78 0 013.215-5.582 1.491 1.491 0 00.369-1.365l-1.878-8.11a.979.979 0 00-.1-.242c-.008-.015-.011-.033-.019-.047s-.043-.048-.063-.074a1.008 1.008 0 00-.141-.165.929.929 0 00-.109-.066 1.016 1.016 0 00-.155-.094.988.988 0 00-.234-.057c-.023 0-.043-.015-.066-.017a1 1 0 00-.551.123c-.015.008-.033.011-.048.02h-.01l-7.061 4.407a1.492 1.492 0 00-.706 1.23 18.77 18.77 0 01-1.681 6.233v.011L44.8 29.563a13.414 13.414 0 00-3.572-1.29 54.033 54.033 0 00.518-9.833 10.914 10.914 0 002.482-8.012C43.6 4.6 38.333.391 38.108.214a1 1 0 00-1.585 1.043c.515 1.934.069 3.975-3.735 8.172a5.852 5.852 0 00-1.371 6.377 7.763 7.763 0 001.424 2.3 70.05 70.05 0 00-.563 4.433 50.082 50.082 0 00-.174 7.092 13.606 13.606 0 00-2.49 1.735l-4.85-20.74c0-.021-.02-.036-.026-.055a.948.948 0 00-.07-.193l-4.954-9.149a2.309 2.309 0 00-4.338 1.016L15 12.64a1.037 1.037 0 00.025.223v.045l4.948 21.117a11.258 11.258 0 00-2.312.345l-5.443-13.145a2.021 2.021 0 00-2.61-1.069L1.289 23.6a2.006 2.006 0 00-1.083 2.613l7.382 17.808A8 8 0 008 60h44a8 8 0 10-.232-16zm-1.019-25.884l4.192-2.616-1.484 3.584a1 1 0 101.848.766l1.484-3.584 1.111 4.813a19.78 19.78 0 00-2.9 4.787 4.113 4.113 0 01-5.59-2.312 19.754 19.754 0 001.339-5.438zm-2.3 7.851a6.091 6.091 0 002.493 1.815 6.345 6.345 0 002.447.516 5.3 5.3 0 00.606-.037l-3.191 7.7a13.572 13.572 0 00-4.294-5.309zm-13.7-7.142l5.024.307c.031.934.02 1.9-.011 2.881a21.02 21.02 0 01-5.01-.242c-.126-.018-.249-.032-.374-.049.1-.942.222-1.9.369-2.9zm-.477-8.053c2.655-2.929 4.031-5.182 4.351-7.3a13.374 13.374 0 013.609 7.168 8.96 8.96 0 01-2.024 6.512q-2.963-.18-5.861-.36a4.171 4.171 0 01-.077-6.02zM34.2 23.715l.29.038a28.492 28.492 0 003.893.331c.414 0 .85-.033 1.287-.067a62.884 62.884 0 01-.429 4.02c-.251-.013-.493-.037-.741-.037a13.393 13.393 0 00-4.432.763 48.264 48.264 0 01.126-5.048zm-7.739 11.694L23.6 23.222a1 1 0 00-1.947.456l2.571 10.969a11.326 11.326 0 00-2.18-.543l-4.389-18.73a4.739 4.739 0 001.958.426c.063 0 .13-.009.194-.012l.707 3.019a1 1 0 101.947-.456l-.708-3.021A4.736 4.736 0 0023.5 14l4.462 19.079a13.415 13.415 0 00-1.501 2.33zm-6.11-21.7a3.32 3.32 0 01-3.339-1.337l.127-3.522a5.886 5.886 0 001.055.1 4.456 4.456 0 001.016-.113 5.094 5.094 0 001.854-.922l1.684 3.108a3.317 3.317 0 01-2.4 2.688zM17.612 2.027a.312.312 0 01.344.154L20.1 6.146a3.412 3.412 0 01-1.35.75 3.4 3.4 0 01-1.541-.073l.163-4.506a.31.31 0 01.24-.29zM10.375 22l.764 1.846-3.7 1.532a1 1 0 00.385 1.922 1.014 1.014 0 00.383-.076l3.7-1.533.765 1.848-1.851.767a1 1 0 00.379 1.924 1.016 1.016 0 00.382-.076l1.851-.767.765 1.848L10.5 32.77a1 1 0 00.384 1.924 1.012 1.012 0 00.382-.076l3.7-1.532.809 1.953A11.609 11.609 0 009.3 42.92L2.052 25.444zM52 58H8a6 6 0 010-12 5.891 5.891 0 011.711.248A1 1 0 0011 45.309 9.5 9.5 0 0126.2 37.9a1 1 0 001.533-.45 11.5 11.5 0 0121.762 7.424 1 1 0 001.17 1.272A6.246 6.246 0 0152 46a6 6 0 010 12z"/><path data-name="Shape" d="M38.685 15.7a1 1 0 00.8-.395 7.5 7.5 0 001.33-5.888 1 1 0 10-1.932.515 5.555 5.555 0 01-.992 4.166 1 1 0 00.8 1.6zM37.37 46a4.916 4.916 0 00-2.145.5 6 6 0 00-10.365 5.89 1 1 0 00.92.608.989.989 0 00.392-.08 1 1 0 00.528-1.312A4.074 4.074 0 0126.37 50a4 4 0 014-4 3.96 3.96 0 013.615 2.3 1.091 1.091 0 00.07.094 1.015 1.015 0 00.053.1c.018.022.044.032.064.053a.954.954 0 00.155.13.969.969 0 00.16.1.99.99 0 00.18.056.919.919 0 00.188.029 1.231 1.231 0 00.382-.064.754.754 0 00.079-.019.9.9 0 00.093-.069 1.039 1.039 0 00.1-.054A2.949 2.949 0 0137.37 48a3 3 0 012.72 1.745 1 1 0 101.82-.83A5 5 0 0037.37 46zm-19.686-6.949C17.533 39.1 14 40.322 14 44a1 1 0 002 0 3.438 3.438 0 012.322-3.053 1 1 0 00-.638-1.9zm14.073-1.081A.976.976 0 0032 38a1 1 0 00.969-.757A4.265 4.265 0 0137.005 34 1 1 0 0037 32a6.229 6.229 0 00-5.97 4.757 1 1 0 00.727 1.213z"/></g></svg>