<svg xmlns="http://www.w3.org/2000/svg" xmlns:xlink="http://www.w3.org/1999/xlink" width="103.848" height="103.848" viewBox="0 0 103.848 103.848"><defs><style>.a,.b{opacity:0.76;}.b{fill:url(#a);}.c{fill:#fff;}</style><linearGradient id="a" x1="0.5" x2="0.5" y2="1" gradientUnits="objectBoundingBox"><stop offset="0" stop-color="#544cf9"/><stop offset="1" stop-color="#814cf9"/></linearGradient></defs><g class="a"><path class="b" d="M0,0H14.531L16,31.286l30.5-.659,2.789,2.659,2.353-2.77,30.5-.659L83.728,0H98V57H0Z" transform="translate(3 24.661)"/><path d="M98.823,23.45H87.1V5.025A1.675,1.675,0,0,0,85.424,3.35H80.4V1.675A1.675,1.675,0,0,0,78.724,0H59.436a11.649,11.649,0,0,0-7.512,2.722A11.642,11.642,0,0,0,44.412,0H25.125A1.675,1.675,0,0,0,23.45,1.675V3.35H18.425A1.675,1.675,0,0,0,16.75,5.025V23.45H5.025A5.031,5.031,0,0,0,0,28.475V78.724a5.031,5.031,0,0,0,5.025,5.025h33.5v6.7H36.849a11.74,11.74,0,0,0-11.725,11.725,1.673,1.673,0,0,0,1.675,1.675H77.049a1.673,1.673,0,0,0,1.675-1.675A11.74,11.74,0,0,0,67,90.449H65.324v-6.7h33.5a5.031,5.031,0,0,0,5.025-5.025V28.475A5.031,5.031,0,0,0,98.823,23.45ZM83.749,6.7V53.6h-26.8v-3.35H78.724A1.675,1.675,0,0,0,80.4,48.574V6.7ZM26.8,43.549H44.412A8.32,8.32,0,0,1,50.333,46l.406.407a1.678,1.678,0,0,0,2.372,0l.4-.406a8.324,8.324,0,0,1,5.922-2.454H77.049V46.9H26.8Zm23.45,6.7H53.6v5.025a1.675,1.675,0,0,1-3.35,0Zm26.8-46.9V40.2H59.436A11.661,11.661,0,0,0,53.6,41.75V25.833a8.319,8.319,0,0,1,5.837-2.383H73.7V20.1H59.436A11.661,11.661,0,0,0,53.6,21.65V5.733A8.319,8.319,0,0,1,59.436,3.35ZM26.8,3.35H44.412a8.313,8.313,0,0,1,5.837,2.383V21.65A11.657,11.657,0,0,0,44.412,20.1H30.15v3.35H44.412a8.313,8.313,0,0,1,5.837,2.383V41.75A11.656,11.656,0,0,0,44.412,40.2H26.8ZM20.1,6.7h3.35V48.574a1.675,1.675,0,0,0,1.675,1.675H46.9V53.6H20.1Zm55.1,93.8H28.644a8.389,8.389,0,0,1,8.206-6.7H67a8.388,8.388,0,0,1,8.206,6.7Zm-13.23-10.05h-20.1v-6.7h20.1ZM100.5,78.724A1.676,1.676,0,0,1,98.823,80.4H5.025A1.676,1.676,0,0,1,3.35,78.724V28.475A1.677,1.677,0,0,1,5.025,26.8H16.75V55.274a1.673,1.673,0,0,0,1.675,1.675H47.208a5,5,0,0,0,9.433,0H85.424A1.673,1.673,0,0,0,87.1,55.274V26.8H98.824a1.677,1.677,0,0,1,1.675,1.675Zm0,0" transform="translate(0 0)"/><path d="M145.675,42.05h6.7a1.675,1.675,0,0,0,1.675-1.675v-6.7A1.675,1.675,0,0,0,152.375,32h-6.7A1.675,1.675,0,0,0,144,33.675v6.7A1.675,1.675,0,0,0,145.675,42.05Zm1.675-6.7h3.35V38.7h-3.35Zm0,0" transform="translate(-113.85 -25.3)"/><path d="M312.375,128h-6.7A1.675,1.675,0,0,0,304,129.675v6.7a1.675,1.675,0,0,0,1.675,1.675h6.7a1.675,1.675,0,0,0,1.675-1.675v-6.7A1.675,1.675,0,0,0,312.375,128Zm-1.675,6.7h-3.35v-3.35h3.35Zm0,0" transform="translate(-240.351 -101.2)"/><path d="M144,128h13.4v3.35H144Zm0,0" transform="translate(-113.85 -101.2)"/><path d="M144,160h13.4v3.35H144Zm0,0" transform="translate(-113.85 -126.5)"/><path d="M288,64h13.4v3.35H288Zm0,0" transform="translate(-227.701 -50.6)"/><path d="M288,32h13.4v3.35H288Zm0,0" transform="translate(-227.701 -25.3)"/><path class="c" d="M141.974,288a8.39,8.39,0,0,0-8.206,6.7H96.581a8.375,8.375,0,1,0,0,3.35h37.188A8.375,8.375,0,1,0,141.974,288Zm-53.6,13.4a5.025,5.025,0,1,1,5.025-5.025A5.031,5.031,0,0,1,88.375,301.4Zm53.6,0A5.025,5.025,0,1,1,147,296.375,5.031,5.031,0,0,1,141.974,301.4Zm0,0" transform="translate(-63.25 -227.701)"/></g></svg>