<svg xmlns="http://www.w3.org/2000/svg" width="68.599" height="42.873" viewBox="0 0 68.599 42.873">
    <defs>
        <linearGradient id="a" x1=".5" x2=".5" y2="1" gradientUnits="objectBoundingBox">
            <stop offset="0" stop-color="#544cf9" />
            <stop offset="1" stop-color="#814cf9" />
        </linearGradient>
    </defs>
    <g data-name="Group 389">
        <g data-name="Group 388">
            <path data-name="Path 761"
                d="M118.806 145.02c-1.346-2.807-6.163-6.7-10.816-10.467-2.6-2.1-5.048-4.082-6.611-5.645a1.429 1.429 0 00-1.495-.334c-.963.349-1.558.617-2.026.826a4.726 4.726 0 01-1.918.526 1.429 1.429 0 00-1.046.626c-2.021 3.021-4.113 2.764-5.511 2.3-.446-.149-.526-.34-.569-.523-.3-1.255 1.206-4.176 3.158-6.128 4.645-4.648 7.04-5.811 12.1-3.55 5.739 2.567 11.49 4.576 11.548 4.6a1.43 1.43 0 00.94-2.7c-.057-.02-5.694-1.989-11.319-4.508-6.554-2.93-10.15-1-15.286 4.139-1.955 1.955-4.61 5.911-3.924 8.812a3.535 3.535 0 002.455 2.575c3.238 1.069 6.194.046 8.395-2.875a7.215 7.215 0 002.147-.68c.269-.12.583-.26 1-.429 1.635 1.535 3.842 3.321 6.165 5.2 4.2 3.4 8.966 7.252 10.038 9.481a1.675 1.675 0 01-.426 2.147 1.575 1.575 0 01-1.761.346 1.429 1.429 0 00-2.232 1.329 1.727 1.727 0 01-1.095 1.609 2.193 2.193 0 01-2.227.051 1.429 1.429 0 00-2.4.912 2.716 2.716 0 01-1.686 2.189 1.507 1.507 0 01-1.641-.254 1.446 1.446 0 00-1.306-.332 1.427 1.427 0 00-1 .9c-.054.143-.177.486-1.515.486a8.229 8.229 0 01-3.5-1.2c-1-.66-7.294-5.354-12.728-9.9-.763-.643-2.084-2.021-3.25-3.238-1.035-1.08-1.981-2.061-2.467-2.472a1.43 1.43 0 00-1.846 2.184c.443.374 1.3 1.28 2.247 2.267 1.275 1.332 2.592 2.71 3.479 3.453 5.322 4.456 11.719 9.267 12.994 10.1a10.965 10.965 0 005.073 1.664 4.919 4.919 0 003.244-.955 4.449 4.449 0 003.25-.034 5.63 5.63 0 002.975-2.747 5.527 5.527 0 003.587-.517 4.849 4.849 0 002.387-2.492 4.674 4.674 0 003.278-1.175 4.544 4.544 0 001.141-5.567z"
                transform="translate(-64.641 -115.623)" fill="url(#a)" />
        </g>
    </g>
    <g data-name="Group 391">
        <g data-name="Group 390">
            <path data-name="Path 762"
                d="M120.957 138.663H108.1a1.429 1.429 0 100 2.858h12.862a1.429 1.429 0 100-2.858z"
                transform="translate(-92.375 -132.948)" fill="url(#a)" />
        </g>
    </g>
    <g data-name="Group 393">
        <g data-name="Group 392">
            <path data-name="Path 763"
                d="M391.6 288.612a1.426 1.426 0 00-1.984-.389l-4.179 2.807a1.429 1.429 0 001.6 2.372l4.179-2.807a1.43 1.43 0 00.384-1.983z"
                transform="translate(-333.253 -262.256)" fill="url(#a)" />
        </g>
    </g>
    <g data-name="Group 395">
        <g data-name="Group 394">
            <path data-name="Path 764"
                d="M298.906 286.2c-1.023-.806-5.6-5.491-8.429-8.44a1.429 1.429 0 10-2.064 1.978c.735.766 7.214 7.52 8.721 8.709a1.423 1.423 0 00.883.306 1.444 1.444 0 001.126-.546 1.428 1.428 0 00-.237-2.007z"
                transform="translate(-249.427 -253.025)" fill="url(#a)" />
        </g>
    </g>
    <g data-name="Group 397">
        <g data-name="Group 396">
            <path data-name="Path 765"
                d="M265.474 316.8c-1.712-1.369-6.014-5.94-6.986-7a1.43 1.43 0 00-2.107 1.935c.051.054 5.185 5.6 7.306 7.294a1.43 1.43 0 001.787-2.232z"
                transform="translate(-221.705 -280.755)" fill="url(#a)" />
        </g>
    </g>
    <g data-name="Group 399">
        <g data-name="Group 398">
            <path data-name="Path 766"
                d="M222.84 338.127c-2.038-1.718-6.208-6.157-7.023-7.029a1.43 1.43 0 00-2.089 1.952c1.172 1.255 5.162 5.485 7.269 7.263a1.43 1.43 0 101.844-2.187z"
                transform="translate(-184.759 -299.207)" fill="url(#a)" />
        </g>
    </g>
    <g data-name="Group 401">
        <g data-name="Group 400">
            <path data-name="Path 767"
                d="M16.7 99.252c-2.45-2.321-12.245-3.073-15.189-3.247A1.428 1.428 0 000 97.432v25.725a1.43 1.43 0 001.429 1.429H10a1.428 1.428 0 001.358-.986c.209-.64 5.134-15.755 5.782-23.186a1.422 1.422 0 00-.44-1.162zm-7.739 22.475h-6.1V98.964c4.593.363 9.55 1.152 11.35 2.026-.76 6.26-4.187 17.381-5.25 20.737z"
                transform="translate(0 -96.004)" fill="url(#a)" />
        </g>
    </g>
    <g data-name="Group 403">
        <g data-name="Group 402">
            <path data-name="Path 768"
                d="M381.574 117.33c-11.222 0-17.447 2.873-17.707 2.993a1.422 1.422 0 00-.763.889 1.441 1.441 0 00.157 1.16c1.766 2.844 7.3 18.639 8.36 22.492a1.429 1.429 0 001.379 1.049h8.575a1.43 1.43 0 001.425-1.429v-25.725a1.428 1.428 0 00-1.426-1.429zm-1.429 25.725h-6.077c-1.355-4.413-5.356-15.921-7.589-20.677a46.548 46.548 0 0113.665-2.172z"
                transform="translate(-314.404 -114.473)" fill="url(#a)" />
        </g>
    </g>
</svg>