<svg xmlns="http://www.w3.org/2000/svg" viewBox="0 0 435 435"><linearGradient id="a" gradientUnits="userSpaceOnUse" x1="0" y1="217.188" x2="434.999" y2="217.188"><stop offset="0" stop-color="#544cf9"/><stop offset="1" stop-color="#814cf9"/></linearGradient><path d="M399.8 11.4H35.2C15.8 11.4 0 27.1 0 46.6V304c0 19.4 15.8 35.2 35.2 35.2h120.4V411h-27.9c-3.3 0-6 2.7-6 6s2.7 6 6 6h184.9c3.3 0 6-2.7 6-6s-2.7-6-6-6h-33.2v-71.8h120.4c19.4 0 35.2-15.8 35.2-35.2V46.6c0-19.5-15.8-35.2-35.2-35.2zm-364.6 12h364.6c12.8 0 23.2 10.4 23.2 23.2v224.8H12V46.6c0-12.8 10.4-23.2 23.2-23.2zM267.4 411h-99.8v-71.8h99.8V411zm132.4-83.7H35.2C22.4 327.2 12 316.9 12 304v-20.7h411V304c0 12.9-10.4 23.2-23.2 23.3z" fill="url(#a)" stroke="#544cf9"/><linearGradient id="b" gradientUnits="userSpaceOnUse" x1="179.345" y1="142.245" x2="231.839" y2="142.245"><stop offset="0" stop-color="#544cf9"/><stop offset="1" stop-color="#814cf9"/></linearGradient><path d="M187.1 177c2.1 0 3.7-.7 4.1-2.4l3.6-12.5h21.6l3.6 12.5c.5 1.8 2.1 2.4 4.1 2.4 3.3 0 7.7-2.2 7.7-5.1 0-.3-.1-.6-.2-.9l-18.2-59.3c-.8-2.8-4.3-4.1-7.9-4.1-3.5 0-7 1.3-7.8 4.1L179.5 171c-.1.3-.2.6-.2.9 0 3 4.5 5.1 7.8 5.1zm18.4-53.6l8.2 28.9h-16.4l8.2-28.9z" fill="url(#b)" stroke="#544cf9"/><linearGradient id="c" gradientUnits="userSpaceOnUse" x1="238.337" y1="142.53" x2="250.584" y2="142.53"><stop offset="0" stop-color="#544cf9"/><stop offset="1" stop-color="#814cf9"/></linearGradient><path d="M244.5 177c3 0 6.1-1.3 6.1-3.9v-61.2c0-2.6-3.1-3.8-6.1-3.8-3.1 0-6.1 1.1-6.1 3.8v61.2c-.1 2.5 2.9 3.9 6.1 3.9z" fill="url(#c)" stroke="#544cf9"/><linearGradient id="d" gradientUnits="userSpaceOnUse" x1="31.663" y1="147.363" x2="403.374" y2="147.363"><stop offset="0" stop-color="#544cf9"/><stop offset="1" stop-color="#814cf9"/></linearGradient><path d="M56.7 172.4c11.5 0 21.6-7.9 24.3-19.1h45.7c.5 7.7 2 15.3 4.4 22.6h-3.3c-14 0-25.4 11.4-25.4 25.4 0 7.4-6 13.4-13.4 13.4h-3.7c-3-12.3-14.8-20.4-27.4-18.9-12.6 1.5-22.1 12.2-22.1 24.9s9.5 23.4 22.1 24.9c12.6 1.5 24.3-6.6 27.4-18.9H89c14 0 25.4-11.4 25.4-25.4 0-7.4 6-13.4 13.4-13.4h8.2c13.9 27.9 41.2 46.7 72.3 49.8 3 .3 6.1.4 9.1.4 34.4-.1 65.7-19.5 81.1-50.3h8.4c7.4 0 13.4 6 13.4 13.4 0 14 11.4 25.4 25.4 25.4h3.7c3 12.3 14.8 20.4 27.4 18.9 12.6-1.5 22.1-12.2 22.1-24.9s-9.5-23.4-22.1-24.9c-12.6-1.5-24.3 6.6-27.4 18.9h-3.7c-7.4 0-13.4-6-13.4-13.4 0-14-11.4-25.4-25.4-25.4h-3.5c2.1-6.4 3.5-13 4.2-19.7.1-1 .2-1.9.2-2.9h46c3 12.3 14.8 20.4 27.4 18.9 12.6-1.5 22.1-12.2 22.1-24.9s-9.5-23.4-22.1-24.9c-12.6-1.5-24.3 6.6-27.4 18.9h-46c-.5-7.7-2-15.3-4.4-22.6h3.5c14 0 25.4-11.4 25.4-25.4 0-7.4 6-13.4 13.4-13.4h3.7c1.1 4.4 3.4 8.5 6.6 11.7 8.1 8.1 20.5 9.7 30.4 3.9S401 78 397.9 67c-3.1-11-13.1-18.5-24.5-18.3-11.4.2-21.2 8-24 19.1h-3.7c-14 0-25.4 11.4-25.4 25.4 0 7.4-6 13.4-13.4 13.4h-8.5c-15.4-30.8-46.8-50.2-81.2-50.2s-65.9 19.5-81.2 50.2h-8.2c-7.4 0-13.4-6-13.4-13.4 0-14-11.4-25.4-25.4-25.4h-3.7c-2.7-11-12.6-18.9-23.9-19S40 56.3 36.9 67.3c-3.1 11 1.7 22.6 11.5 28.3 9.8 5.7 22.3 4.1 30.3-3.9 3.2-3.2 5.5-7.3 6.6-11.7H89c7.4 0 13.4 6 13.4 13.4 0 14 11.4 25.4 25.4 25.4h3.3c-2.1 6.4-3.5 13-4.2 19.7-.1 1-.2 1.9-.2 2.9H81.1c-3.1-12.7-15.5-20.8-28.4-18.7-12.9 2.1-22 13.7-21 26.8 1.1 12.9 12 22.9 25 22.9zM70.3 230c-5.1 5.1-13.4 5.1-18.5 0s-5.1-13.4 0-18.5 13.4-5.1 18.5 0 5.1 13.4 0 18.5zm294.4-18.5c5.1-5.1 13.4-5.1 18.5 0s5.1 13.4 0 18.5-13.4 5.1-18.5 0-5.1-13.4 0-18.5h0zm4.3-73.4c5.1-5.1 13.4-5.1 18.5 0s5.1 13.4 0 18.5-13.4 5.1-18.5 0c-2.5-2.4-3.9-5.8-3.9-9.2.1-3.5 1.5-6.8 3.9-9.3zm-4.3-73.4c5.1-5.1 13.4-5.1 18.5 0s5.1 13.4 0 18.5-13.4 5.1-18.5 0-5.1-13.4 0-18.5h0zM70.3 83.2c-5.1 5.1-13.4 5.1-18.5 0s-5.1-13.4 0-18.5 13.4-5.1 18.5 0 5.1 13.4 0 18.5zm154.8-14.3c43.3 4.3 75 42.8 70.7 86.2-4.3 43.3-42.8 75-86.2 70.7-43.3-4.3-75-42.8-70.7-86.2 1.9-20.9 12.1-40.1 28.3-53.4 16.2-13.2 37.1-19.5 57.9-17.3zM47.5 138.1c5.1-5.1 13.4-5.1 18.5 0s5.1 13.4 0 18.5-13.4 5.1-18.5 0c-2.5-2.4-3.9-5.8-3.9-9.2 0-3.5 1.4-6.8 3.9-9.3z" fill="url(#d)" stroke="#544cf9"/></svg>