<svg xmlns="http://www.w3.org/2000/svg" width="56.559" height="50.018" viewBox="0 0 56.559 50.018"><defs><linearGradient id="a" x1=".5" x2=".5" y2="1" gradientUnits="objectBoundingBox"><stop offset="0" stop-color="#544cf9"/><stop offset="1" stop-color="#814cf9"/></linearGradient></defs><g transform="translate(.5 .5)" stroke="#544cf9" fill="url(#a)"><path data-name="Path 753" d="M21.921 35.659a.914.914 0 01-.594-.219l-5.935-5.054a.918.918 0 010-1.4l5.935-5.054a.918.918 0 111.189 1.4l-5.115 4.356 5.115 4.356a.917.917 0 01-.6 1.616zm0 0"/><path data-name="Path 754" d="M33.638 35.659a.918.918 0 01-.6-1.616l5.115-4.356-5.11-4.36a.918.918 0 011.189-1.4l5.935 5.054a.918.918 0 010 1.4l-5.935 5.054a.914.914 0 01-.594.224zm0 0"/><path data-name="Path 755" d="M25.678 39.449a.932.932 0 01-.19-.02.918.918 0 01-.708-1.087l3.7-17.563a.92.92 0 011.8.378l-3.7 17.563a.917.917 0 01-.902.729zm0 0"/><path data-name="Path 756" d="M49.4 49.018H6.159A6.166 6.166 0 010 42.86V6.159A6.166 6.166 0 016.159 0H49.4a6.166 6.166 0 016.159 6.159v36.7a6.166 6.166 0 01-6.159 6.159zM6.159 1.834a4.329 4.329 0 00-4.325 4.325v36.7a4.329 4.329 0 004.324 4.324H49.4a4.329 4.329 0 004.324-4.324v-36.7A4.329 4.329 0 0049.4 1.834zm0 0"/><path data-name="Path 757" d="M54.642 14.687H.917a.917.917 0 110-1.834h53.725a.917.917 0 110 1.834zm0 0"/><path data-name="Path 758" d="M15.672 10.299a2.9 2.9 0 112.9-2.9 2.907 2.907 0 01-2.9 2.9zm0-3.971a1.068 1.068 0 101.068 1.068 1.07 1.07 0 00-1.068-1.068zm0 0"/><path data-name="Path 759" d="M6.753 10.271a2.9 2.9 0 112.9-2.9 2.906 2.906 0 01-2.9 2.9zm0-3.971a1.068 1.068 0 101.068 1.068A1.07 1.07 0 006.753 6.3zm0 0"/><path data-name="Path 760" d="M24.591 10.326a2.9 2.9 0 112.9-2.9 2.906 2.906 0 01-2.9 2.9zm0-3.971a1.068 1.068 0 101.068 1.068 1.069 1.069 0 00-1.068-1.068zm0 0"/></g></svg>