<svg xmlns="http://www.w3.org/2000/svg" viewBox="0 0 56.6 50"><linearGradient id="a" gradientUnits="userSpaceOnUse" x1="-408.233" y1="241.983" x2="-408.233" y2="247.713" gradientTransform="matrix(8 0 0 -8 3294.586 1984)"><stop offset="0" stop-color="#544cf9"/><stop offset="1" stop-color="#814cf9"/></linearGradient><path d="M17.6 36.3h2.2v2.2h-1.5v-.7h-2.2c-.4 0-.7.3-.7.7 0 .4.3.7.7.7h1.5c1.2 0 2.2 1 2.2 2.2s-1 2.2-2.2 2.2v1.5h-1.5v-1.5h-2.2v-2.2h1.5v.7h2.2c.4 0 .7-.3.7-.7s-.3-.7-.7-.7h-1.5c-1.2 0-2.2-1-2.2-2.2 0-1.2 1-2.2 2.2-2.2v-1.5h1.5v1.5zm26.6-20.7v-1.5c1.2 0 2.2-1 2.2-2.2s-1-2.2-2.2-2.2h-1.5c-.4 0-.7-.3-.7-.7s.3-.7.7-.7H45V9h1.5V6.7h-2.2V5.3h-1.5v1.5c-1.2 0-2.2 1-2.2 2.2s1 2.2 2.2 2.2h1.5c.4 0 .7.3.7.7s-.3.7-.7.7H42v-.7h-1.5v2.2h2.2v1.5h1.5zm0 2.9v6c1.7.3 3 1.8 3 3.6 0 2-1.7 3.7-3.7 3.7s-3.7-1.7-3.7-3.7c0-.2 0-.4.1-.7l-5.1-2c-.5.7-1.4 1.2-2.4 1.2-.5 0-1-.1-1.4-.4l-3 3.1v5.4h15.7l6.9 3.4c.7.3 1.1 1 1.1 1.7s-.4 1.4-1.1 1.7l-6.9 3.4H23.2c-1.5 1.8-3.7 3-6.3 3-4.5 0-8.1-3.6-8.1-8.1V39c-1.7-.3-3-1.8-3-3.6v-25c0-2 1.7-3.7 3.7-3.7h14.8c2 0 3.7 1.7 3.7 3.7v16.9l1.9-2c-.3-.5-.5-1-.5-1.6 0-1.6 1.3-3 3-3 1.6 0 3 1.3 3 3v.4l5.1 2c.5-.8 1.4-1.4 2.3-1.6v-6c-4.1-.4-7.4-3.9-7.4-8.1 0-4.5 3.6-8.1 8.1-8.1s8.1 3.6 8.1 8.1c0 4.3-3.2 7.7-7.4 8.1zM9.1 37.7c.2-.5.4-1.1.6-1.5-.6-.2-.9-.7-.9-1.4v-1.5c0-.8.7-1.5 1.5-1.5h1.5c.6 0 1.2.4 1.4.9 1.1-.6 2.4-.9 3.8-.9 1.9 0 3.7.7 5.1 1.8l4.6-4.8V10.4c0-1.2-1-2.2-2.2-2.2h-15c-1.2 0-2.2 1-2.2 2.2v25.1c0 1.1.8 2 1.8 2.2zm33 1.6l-1-1.5 1-1.5h-18c.5.9.8 1.9.9 3h17.1zm-30.4-5.6v-.4h-1.5v1.5h.4l1.1-1.1zM23.5 40a6.7 6.7 0 10-13.4 0 6.7 6.7 0 0013.4 0zm.6 3.7h18l-1-1.5 1-1.5H25c-.1 1.1-.4 2.1-.9 3zm25.8-4.1l-6.1-3.1-.8 1.3 1.5 2.2-1.5 2.2.8 1.3 6.1-3.1c.2-.1.3-.2.3-.4s-.1-.3-.3-.4zM26.5 31L23 34.7c0 .1.1.1.1.2h3.3V31zm7.4-7.3c0-.8-.7-1.5-1.5-1.5s-1.5.7-1.5 1.5.7 1.5 1.5 1.5 1.5-.6 1.5-1.5zm9.6-6.6a6.7 6.7 0 100-13.4 6.7 6.7 0 000 13.4zm0 8.9c-1.2 0-2.2 1-2.2 2.2s1 2.2 2.2 2.2 2.2-1 2.2-2.2-1-2.2-2.2-2.2zM8.8 17.1v-5.9c0-.8.7-1.5 1.5-1.5h13.3c.8 0 1.5.7 1.5 1.5v5.9c0 .8-.7 1.5-1.5 1.5H10.2c-.8 0-1.4-.7-1.4-1.5zm1.4 0h13.3v-5.9H10.2v5.9zM8.8 23v-1.5c0-.8.7-1.5 1.5-1.5h1.5c.8 0 1.5.7 1.5 1.5V23c0 .8-.7 1.5-1.5 1.5h-1.5c-.9 0-1.5-.7-1.5-1.5zm1.4 0h1.5v-1.5h-1.5V23zm8.9-1.5V23c0 .8-.7 1.5-1.5 1.5h-1.5c-.8 0-1.5-.7-1.5-1.5v-1.5c0-.8.7-1.5 1.5-1.5h1.5c.8 0 1.5.7 1.5 1.5zM17.6 23v-1.5h-1.5V23h1.5zm7.4-1.5V23c0 .8-.7 1.5-1.5 1.5H22c-.8 0-1.5-.7-1.5-1.5v-1.5c0-.8.7-1.5 1.5-1.5h1.5c.9 0 1.5.7 1.5 1.5zM23.5 23v-1.5H22V23h1.5zM8.8 28.9v-1.5c0-.8.7-1.5 1.5-1.5h1.5c.8 0 1.5.7 1.5 1.5v1.5c0 .8-.7 1.5-1.5 1.5h-1.5c-.9 0-1.5-.7-1.5-1.5zm1.4 0h1.5v-1.5h-1.5v1.5zm8.9-1.5v1.5c0 .8-.7 1.5-1.5 1.5h-1.5c-.8 0-1.5-.7-1.5-1.5v-1.5c0-.8.7-1.5 1.5-1.5h1.5c.8.1 1.5.7 1.5 1.5zm-1.5 1.5v-1.5h-1.5v1.5h1.5zm7.4-1.5v1.5c0 .8-.7 1.5-1.5 1.5H22c-.8 0-1.5-.7-1.5-1.5v-1.5c0-.8.7-1.5 1.5-1.5h1.5c.9.1 1.5.7 1.5 1.5zm-1.5 1.5v-1.5H22v1.5h1.5z" fill="url(#a)"/></svg>