<svg xmlns="http://www.w3.org/2000/svg" width="55.317" height="54.395" viewBox="0 0 55.317 54.395"><defs><linearGradient id="a" x1=".5" x2=".5" y2="1" gradientUnits="objectBoundingBox"><stop offset="0" stop-color="#544cf9"/><stop offset="1" stop-color="#814cf9"/></linearGradient></defs><g fill="url(#a)" data-name="Group 451"><path data-name="Path 819" d="M44.715 15.673a1.383 1.383 0 10-1.383-1.383 1.383 1.383 0 001.383 1.383z"/><path data-name="Path 820" d="M43.332 18.439h-1.844a.922.922 0 01-1.844 0H37.8a2.766 2.766 0 005.532 0z"/><path data-name="Path 821" d="M48.992 41.956a6.323 6.323 0 01-.834 7.236.922.922 0 00-.216.593v4.61h1.844v-4.284a8.134 8.134 0 00.794-9.092z"/><path data-name="Path 822" d="M32.14 41.956l-1.588-.937a8.134 8.134 0 00.794 9.092v4.284h1.844v-4.609a.922.922 0 00-.216-.593 6.323 6.323 0 01-.834-7.237z"/><path data-name="Path 823" d="M52.57 30.257a8.893 8.893 0 00.438-5.3 56.483 56.483 0 01-1.187-7.131 3.684 3.684 0 00-.191-6.265V9.22a.916.916 0 00-.084-.382A10.157 10.157 0 0041.488 0h-1.844A10.153 10.153 0 0029.5 10.141v11.688a8.911 8.911 0 00-.941 8.429 5.565 5.565 0 00-.9.658v-3.257a.922.922 0 00-.922-.922H21.2v-1.844a5.527 5.527 0 00-8.3-4.787 5.527 5.527 0 00-8.3 4.787v1.844H.922a.922.922 0 00-.922.922v25.814a.922.922 0 00.922.922h26.737V35.034a3.693 3.693 0 013.215-3.656l.325.487a11.258 11.258 0 0018.735 0l.325-.487a3.693 3.693 0 013.215 3.656V54.4h1.844V35.034a5.533 5.533 0 00-2.747-4.777zm-26.755 4.777v16.213L23.971 49.4V28.581h1.844zM22.127 49.4l-1.844 1.844V28.581h1.844zm.922 1.686l1.462 1.462h-2.924zm-3.688-26.2v1.844h-3.688v-1.837a5.5 5.5 0 00-1.232-3.475 3.687 3.687 0 014.92 3.475zm-9.22 9.1l.922.615v7.8H7.376v-7.8l.922-.615v1.043h1.844zm2.766-11.534a3.672 3.672 0 01.922 2.435v1.844h-1.844v-1.838a3.672 3.672 0 01.922-2.435zm-6.454 2.435a3.686 3.686 0 014.92-3.475 5.5 5.5 0 00-1.232 3.475v1.844H6.454zm-4.61 3.688H4.61v1.844h1.844v-1.838H8.3v3.194l-2.355 1.57a.922.922 0 00-.411.767v9.22a.922.922 0 00.922.922h5.532a.922.922 0 00.922-.922v-9.22a.922.922 0 00-.41-.767l-2.355-1.57v-3.194h3.688v1.844h1.844v-1.844h2.766v23.97h-16.6zm49.365-3.22a7.06 7.06 0 01-.364 4.245 5.533 5.533 0 00-1.059-.1h-4.61v-4a9.15 9.15 0 004.564-7.06h.046c.081 0 .161 0 .242-.009a59.113 59.113 0 001.181 6.93zm-13.922-1.234a7.344 7.344 0 01-3.736-4.3l.507-.611.007-.008a1.024 1.024 0 00.082-.108 8.224 8.224 0 001.654-3.566 1.383 1.383 0 10.233-2.565 6.373 6.373 0 013.7-4.824l3.095-1.375a11.752 11.752 0 005.109 5.775v4.979a7.372 7.372 0 01-10.655 6.6zm12.5-11.214a1.844 1.844 0 110 3.688zm0-2.766v.922h-.7A9.913 9.913 0 0144.5 5.971l-.247-.617V2.32a8.311 8.311 0 015.532 7.821zm-18.439 0a8.307 8.307 0 018.3-8.3s2.463.019 2.766.052v3.036L38.992 6.45a8.218 8.218 0 00-4.876 7.5 6.379 6.379 0 01-1.475 4.076l-.8.962-.012.015-.477.571zm-.2 12.558l1.062-1.271a9.182 9.182 0 003.747 4.072v4h-4.61a5.527 5.527 0 00-1.06.1 7.061 7.061 0 01.861-6.9zm9.419 12.335a9.393 9.393 0 01-7.472-3.688h3.784a.922.922 0 00.922-.922V26.31a9.185 9.185 0 005.532 0v4.114a.922.922 0 00.922.922h3.784a9.393 9.393 0 01-7.472 3.688z"/></g></svg>