<svg xmlns="http://www.w3.org/2000/svg" viewBox="0 0 496 496"><linearGradient id="a" gradientUnits="userSpaceOnUse" x1="25.172" y1="248" x2="470.828" y2="248"><stop offset="0" stop-color="#544cf9"/><stop offset="1" stop-color="#814cf9"/></linearGradient><path d="M442.1 154.6c15.9 0 28.8-12.9 28.8-28.8v-14.4c0-15.9-12.9-28.8-28.8-28.8h-57.5V68.3c7.9 0 14.4-6.4 14.4-14.4V39.5c0-7.9-6.4-14.4-14.4-14.4h-345c-7.9 0-14.4 6.4-14.4 14.4v14.4c0 7.9 6.4 14.4 14.4 14.4v147.8l-14.4-13.6v268.3h284L111.3 283.9h201.4v122.2c0 11.9 9.7 21.6 21.6 21.6h115c11.9 0 21.6-9.7 21.6-21.6V219.2c0-11.9-9.7-21.6-21.6-21.6h-64.7v-43.1h57.5zm-28.8-43.2H255.2V97.1h158.1v14.3zm-172.5 22.5l-23-15.3 23-15.3v30.6zm14.4-8.1h158.1v14.4H255.2v-14.4zm201.3-14.4v14.4c0 7.9-6.4 14.4-14.4 14.4h-14.4V97.1h14.4c7.9 0 14.4 6.4 14.4 14.3zm-417-71.9h345v14.4h-345V39.5zm0 417v-14.4h14.4v-14.4H39.5v-14.4h14.4v-14.4H39.5v-14.4h14.4v-14.4H39.5v-14.4h14.4v-14.4H39.5v-14.4h14.4v-14.4H39.5v-14.4h14.4v-14.4H39.5v-48L273 456.5H39.5zm417-237.3v186.9c0 4-3.2 7.2-7.2 7.2h-115c-4 0-7.2-3.2-7.2-7.2V219.2c0-4 3.2-7.2 7.2-7.2h115c3.9.1 7.2 3.3 7.2 7.2zm-86.3-21.5H248v14.4h66c-.8 2.3-1.3 4.7-1.3 7.2v7.2H248v14.4h64.7v28.8H96.1l-42.2-39.8V68.3h316.3v14.4H245.8l-53.9 35.9 53.9 35.9h124.4v43.2z" fill="url(#a)" stroke="#544cf9"/><linearGradient id="b" gradientUnits="userSpaceOnUse" x1="68.3" y1="177.749" x2="176.12" y2="177.749"><stop offset="0" stop-color="#544cf9"/><stop offset="1" stop-color="#814cf9"/></linearGradient><path d="M176.1 111.4h-49.4l-13 97.4-20.4-25.5h-25v14.4h18.1l37.1 46.4 15.8-118.3h36.8v-14.4z" fill="url(#b)" stroke="#544cf9"/><linearGradient id="c" gradientUnits="userSpaceOnUse" x1="149.474" y1="190.496" x2="231.518" y2="190.496"><stop offset="0" stop-color="#544cf9"/><stop offset="1" stop-color="#814cf9"/></linearGradient><path d="M221.4 149.5l-30.9 30.9-30.9-30.9-10.2 10.2 30.9 30.9-30.9 30.9 10.2 10.2 30.9-30.9 30.9 30.9 10.2-10.2-30.9-30.9 30.9-30.9-10.2-10.2z" fill="url(#c)" stroke="#544cf9"/><linearGradient id="d" gradientUnits="userSpaceOnUse" x1="248" y1="176.12" x2="355.82" y2="176.12"><stop offset="0" stop-color="#544cf9"/><stop offset="1" stop-color="#814cf9"/></linearGradient><path d="M248 168.9h107.8v14.4H248v-14.4z" fill="url(#d)" stroke="#544cf9"/><linearGradient id="e" gradientUnits="userSpaceOnUse" x1="68.3" y1="365.165" x2="200.723" y2="365.165"><stop offset="0" stop-color="#544cf9"/><stop offset="1" stop-color="#814cf9"/></linearGradient><path d="M68.3 302.6v125.1h132.4L68.3 302.6zM82.7 336l81.9 77.3H82.7V336z" fill="url(#e)" stroke="#544cf9"/><linearGradient id="f" gradientUnits="userSpaceOnUse" x1="341.444" y1="255.188" x2="442.076" y2="255.188"><stop offset="0" stop-color="#544cf9"/><stop offset="1" stop-color="#814cf9"/></linearGradient><path d="M442.1 226.4H341.4v57.5H442v-57.5zm-14.4 43.2h-71.9v-28.8h71.9v28.8z" fill="url(#f)" stroke="#544cf9"/><linearGradient id="g" gradientUnits="userSpaceOnUse" x1="416" y1="328" x2="464" y2="328"><stop offset="0" stop-color="#544cf9"/><stop offset="1" stop-color="#814cf9"/></linearGradient><path d="M416 320h48v16h-48v-16z" fill="url(#g)" stroke="#544cf9"/><linearGradient id="h" gradientUnits="userSpaceOnUse" x1="341.444" y1="363.008" x2="384.572" y2="363.008"><stop offset="0" stop-color="#544cf9"/><stop offset="1" stop-color="#814cf9"/></linearGradient><path d="M341.4 355.8h43.1v14.4h-43.1v-14.4z" fill="url(#h)" stroke="#544cf9"/><linearGradient id="i" gradientUnits="userSpaceOnUse" x1="341.444" y1="391.76" x2="384.572" y2="391.76"><stop offset="0" stop-color="#544cf9"/><stop offset="1" stop-color="#814cf9"/></linearGradient><path d="M341.4 384.6h43.1V399h-43.1v-14.4z" fill="url(#i)" stroke="#544cf9"/><linearGradient id="j" gradientUnits="userSpaceOnUse" x1="341.444" y1="319.88" x2="384.572" y2="319.88"><stop offset="0" stop-color="#544cf9"/><stop offset="1" stop-color="#814cf9"/></linearGradient><path d="M355.8 341.4h14.4V327h14.4v-14.4h-14.4v-14.4h-14.4v14.4h-14.4V327h14.4v14.4z" fill="url(#j)" stroke="#544cf9"/><linearGradient id="k" gradientUnits="userSpaceOnUse" x1="418.344" y1="392" x2="461.656" y2="392"><stop offset="0" stop-color="#544cf9"/><stop offset="1" stop-color="#814cf9"/></linearGradient><path d="M450.3 370.3L440 380.7l-10.3-10.3-11.3 11.3 10.3 10.3-10.3 10.3 11.3 11.3 10.3-10.3 10.3 10.3 11.3-11.3-10.3-10.3 10.3-10.3-11.3-11.4z" fill="url(#k)" stroke="#544cf9"/></svg>