<svg xmlns="http://www.w3.org/2000/svg" width="65.156" height="65.156" viewBox="0 0 65.156 65.156"><defs><linearGradient id="a" x1=".5" x2=".5" y2="1" gradientUnits="objectBoundingBox"><stop offset="0" stop-color="#544cf9"/><stop offset="1" stop-color="#814cf9"/></linearGradient></defs><path data-name="Path 824" d="M301.425 290.681v-7.937l-3.04-.777-.064-.153 1.6-2.7-5.613-5.613-2.7 1.6-.153-.064-.774-3.037h-7.937l-.777 3.04-.153.064-2.7-1.6-5.613 5.613 1.6 2.7-.064.153-3.039.777v7.937l3.04.777.064.153-1.6 2.7 5.613 5.613 2.7-1.6.153.064.777 3.039h7.937l.777-3.04.153-.064 2.7 1.6 5.613-5.613-1.6-2.7.064-.153zm-4.144 3.3l-3.3 3.3-2.246-1.333-.505.242a10.521 10.521 0 01-1 .415l-.53.188-.645 2.53h-4.674l-.645-2.53-.53-.188a9.907 9.907 0 01-1-.415l-.505-.242-2.246 1.333-3.3-3.3 1.333-2.246-.242-.505a10.5 10.5 0 01-.415-1l-.188-.53-2.531-.645v-4.674l2.53-.645.188-.53a9.907 9.907 0 01.415-1l.242-.505-1.333-2.246 3.3-3.3 2.246 1.333.505-.242a10.494 10.494 0 011-.415l.53-.188.645-2.531h4.674l.645 2.53.53.188a9.91 9.91 0 011 .415l.505.242 2.246-1.333 3.3 3.3-1.333 2.246.242.505a10.51 10.51 0 01.415 1l.188.53 2.531.645v4.674l-2.53.645-.188.53a9.91 9.91 0 01-.415 1l-.242.505zm0 0" transform="translate(-236.269 -236.269)" fill="url(#a)"/><path data-name="Path 825" d="M328.407 320a8.407 8.407 0 108.407 8.407 8.417 8.417 0 00-8.407-8.407zm0 14.713a6.305 6.305 0 116.305-6.305 6.312 6.312 0 01-6.305 6.305zm0 0" transform="translate(-277.964 -277.964)" fill="url(#a)"/><path data-name="Path 826" d="M356.2 352a4.2 4.2 0 104.2 4.2 4.208 4.208 0 00-4.2-4.2zm0 6.305a2.1 2.1 0 112.1-2.1 2.1 2.1 0 01-2.1 2.1zm0 0" transform="translate(-305.76 -305.76)" fill="url(#a)"/><path data-name="Path 827" d="M158.647 17.794a6.316 6.316 0 001.76 2.656v.891l-5 1.873A5.277 5.277 0 00152 28.135v5.494h25.222v-5.494a5.28 5.28 0 00-3.409-4.92l-5-1.873v-.89a6.3 6.3 0 001.76-2.656 4.2 4.2 0 003.494-4.132v-4.2a9.458 9.458 0 10-18.916 0v4.2a4.2 4.2 0 003.496 4.13zm8.065 3.984l-2.1 3.5-2.1-3.5V21.7a6.187 6.187 0 004.2 0zm-5.706 1.583l2.119 3.53-2.1 1.052-1.36-4.077zm14.113 4.774v3.392H154.1v-3.392a3.167 3.167 0 012.046-2.952l1.545-.579 2.1 6.3 4.817-2.409 4.817 2.409 2.1-6.3 1.546.58a3.165 3.165 0 012.049 2.951zm-5.559-4.27l-1.36 4.078-2.1-1.052 2.119-3.531zm-4.95-3.9a4.208 4.208 0 01-4.2-4.2v-4.276a8.135 8.135 0 004.2-1.677 8.126 8.126 0 004.2 1.677v4.275a4.208 4.208 0 01-4.199 4.203zm6.305-4.5v-3.612a2.083 2.083 0 010 3.619zM164.611 2.1a7.365 7.365 0 017.356 7.356v.584a4.158 4.158 0 00-2.1-.584h-.181a6.082 6.082 0 01-4.331-1.794l-.743-.744-.743.744a6.083 6.083 0 01-4.331 1.794h-.181a4.158 4.158 0 00-2.1.584v-.582a7.365 7.365 0 017.354-7.358zm-6.305 9.75v3.62a2.083 2.083 0 010-3.619zm0 0" transform="translate(-132.033)" fill="url(#a)"/><path data-name="Path 828" d="M0 315.323h21.018V288H0zM2.1 290.1h16.816v23.12H2.1zm0 0" transform="translate(0 -250.168)" fill="url(#a)"/><path data-name="Path 829" d="M32 320h12.611v2.1H32zm0 0" transform="translate(-27.796 -277.964)" fill="url(#a)"/><path data-name="Path 830" d="M32 352h2.1v2.1H32zm0 0" transform="translate(-27.796 -305.76)" fill="url(#a)"/><path data-name="Path 831" d="M64 352h8.407v2.1H64zm0 0" transform="translate(-55.593 -305.76)" fill="url(#a)"/><path data-name="Path 832" d="M32 384h12.611v2.1H32zm0 0" transform="translate(-27.796 -333.557)" fill="url(#a)"/><path data-name="Path 833" d="M32 416h12.611v2.1H32zm0 0" transform="translate(-27.796 -361.353)" fill="url(#a)"/><path data-name="Path 834" d="M112 448h2.1v2.1H112zm0 0" transform="translate(-97.287 -389.15)" fill="url(#a)"/><path data-name="Path 835" d="M32 448h8.407v2.1H32zm0 0" transform="translate(-27.796 -389.15)" fill="url(#a)"/><path data-name="Path 836" d="M171.12 347.83l-1.486-1.486-4.947 4.947 4.947 4.947 1.486-1.486-2.41-2.41h7.972v-2.1h-7.972zm0 0" transform="translate(-143.054 -300.847)" fill="url(#a)"/><path data-name="Path 837" d="M74.1 81.392a1.052 1.052 0 011.051-1.051h4.819l-2.41 2.41 1.486 1.486L84 79.29l-4.947-4.947-1.491 1.487 2.41 2.41h-4.819A3.157 3.157 0 0072 81.392v18.916h2.1zm0 0" transform="translate(-62.542 -64.578)" fill="url(#a)"/><path data-name="Path 838" d="M342.305 107.153v13.227l-2.41-2.41-1.486 1.486 4.947 4.947 4.947-4.947-1.486-1.486-2.41 2.41v-13.227a3.157 3.157 0 00-3.153-3.153H336v2.1h5.254a1.052 1.052 0 011.051 1.053zm0 0" transform="translate(-291.862 -90.338)" fill="url(#a)"/></svg>