<svg xmlns="http://www.w3.org/2000/svg" xmlns:xlink="http://www.w3.org/1999/xlink" width="112.454" height="112.454" viewBox="0 0 112.454 112.454"><defs><style>.a,.b{opacity:0.76;}.b{fill:url(#a);}.c{fill:#fff;}</style><linearGradient id="a" x1="0.5" x2="0.5" y2="1" gradientUnits="objectBoundingBox"><stop offset="0" stop-color="#544cf9"/><stop offset="1" stop-color="#814cf9"/></linearGradient></defs><g class="a"><path class="b" d="M4,0H78a4,4,0,0,1,4,4V46a4,4,0,0,1-4,4H9.5c-2.208-6.31-.627-9.942-3-10.5C5.6,39.278,0,41.25,0,41.25V4A4,4,0,0,1,4,0Z" transform="translate(28 2.454)"/><path class="c" d="M47.951,5A19.951,19.951,0,1,0,67.9,24.951,19.975,19.975,0,0,0,47.951,5ZM40.7,32.207V17.7l14.51,7.255Z" transform="translate(20.972 2.255)"/><path d="M34,10.382v20.38l20.38-10.19Zm3.628,5.869,8.641,4.32-8.641,4.32Z" transform="translate(25.854 6.635)"/><path d="M104.385,1H35.462a9.079,9.079,0,0,0-9.069,9.069V45.454l-19.8,10.8a3.622,3.622,0,0,0-1.569,4.863L5.9,62.84A5.39,5.39,0,0,0,4.628,66.3v9.586C2.4,77.095,1,80.311,1,82.62a5.441,5.441,0,1,0,10.883,0c0-2.309-1.4-5.525-3.628-6.738V66.3a1.867,1.867,0,0,1,.047-.377,3.66,3.66,0,0,0,.464.2,3.549,3.549,0,0,0,1.1.176,3.705,3.705,0,0,0,1.692-.419l1.047-.571,3.345,6.716,1.4-.336.455-.112A12.646,12.646,0,0,0,22.8,78.549,19.969,19.969,0,0,0,10.069,97.13v16.324H44.53v-9.673l.181.241a14.51,14.51,0,0,0,23.216,0l6.085-8.115a6.8,6.8,0,0,0,1.351-4.052v-.667a6.736,6.736,0,0,0-3.628-5.951V77.178h32.648a9.079,9.079,0,0,0,9.069-9.069V10.069A9.079,9.079,0,0,0,104.385,1ZM30.02,10.069a5.448,5.448,0,0,1,5.441-5.441h68.923a5.448,5.448,0,0,1,5.441,5.441V51.786H37.878l-.1-.2,1.163-.633a3.622,3.622,0,0,0,1.569-4.863l-1.636-3.21a3.584,3.584,0,0,0-2.108-1.8,3.623,3.623,0,0,0-2.8.245L30.02,43.475ZM6.441,84.433A1.816,1.816,0,0,1,4.628,82.62c0-1.487,1.233-3.548,1.808-3.628.586.08,1.819,2.14,1.819,3.628A1.816,1.816,0,0,1,6.441,84.433Zm3.45-21.758-1.6-3.218L35.641,44.525l1.634,3.209Zm5.9.892,4.769-2.6L34.589,53.32l2.249,4.514a56.193,56.193,0,0,1-8.86,6.288A55.108,55.108,0,0,1,17.9,67.8Zm5.516,7.027a50.8,50.8,0,0,0,8.352-3.259,51.271,51.271,0,0,0,7.358-4.968,9.058,9.058,0,1,1-15.711,8.227ZM71.737,91.855a3.159,3.159,0,0,1-.626,1.877l-6.085,8.115a10.885,10.885,0,0,1-17.412,0L40.54,92.416l-2.9,2.175L40.9,98.944v10.883H13.7V97.13A16.343,16.343,0,0,1,30.02,80.806h2.138a18.472,18.472,0,0,1,15.125,7.875l7.184,10.262h3.608l8.131-9.756a3.127,3.127,0,0,1,5.53,2Zm-3.628-7.368a6.7,6.7,0,0,0-4.689,2.376l-7.043,8.452L50.257,86.6c-.089-.127-.194-.236-.285-.359V62.668H68.109Zm36.275-10.937H71.737V66.3H106.2V62.668H71.737V59.041H46.344V82.366a22.122,22.122,0,0,0-8.365-4.378,12.645,12.645,0,0,0,1.837-17.925c.27-.236.448-.392.484-.424l1.028-.921-1.645-3.3h70.142v12.7A5.448,5.448,0,0,1,104.385,73.551Z" transform="translate(-1 -1)"/><path d="M30,41H40.883v3.628H30Z" transform="translate(22.599 31.551)"/><path d="M30,45h7.255v3.628H30Z" transform="translate(22.599 34.806)"/><path d="M30,37H40.883v3.628H30Z" transform="translate(22.599 28.296)"/><path d="M19,13h3.628v3.628H19Z" transform="translate(13.648 8.765)"/><path d="M57,25h3.628v3.628H57Z" transform="translate(44.571 18.53)"/><path d="M57,21h3.628v3.628H57Z" transform="translate(44.571 15.275)"/><path d="M57,17h3.628v3.628H57Z" transform="translate(44.571 12.02)"/><path d="M22.628,8.628h14.51V5H22.628A3.631,3.631,0,0,0,19,8.628v7.255h3.628Z" transform="translate(13.648 2.255)"/></g></svg>