<svg xmlns="http://www.w3.org/2000/svg" width="50.527" height="64.504" viewBox="0 0 50.527 64.504"><defs><linearGradient id="a" x1=".5" x2=".5" y2="1" gradientUnits="objectBoundingBox"><stop offset="0" stop-color="#544cf9"/><stop offset="1" stop-color="#814cf9"/></linearGradient></defs><g transform="translate(-.5)" fill="url(#a)"><path data-name="Path 786" d="M30.601 45.153h-10.75a9.686 9.686 0 00-9.676 9.676v8.6a1.075 1.075 0 001.075 1.075h27.952a1.075 1.075 0 001.075-1.075v-8.6a9.686 9.686 0 00-9.676-9.676zm-.2 7.3l-3.151-.525 2.626-3.153zm-2.1-5.148L25.222 51l-3.079-3.695zm-7.732 1.47l2.626 3.152-3.151.524zm-8.248 6.055a7.532 7.532 0 016.27-7.411l-.883 6.184a1.075 1.075 0 001.24 1.213l5.2-.867v8.404h-6.45v-7.525h-2.15v7.525h-3.223zm25.8 7.525h-3.22V54.83h-2.15v7.523h-6.45v-8.407l5.2.867a1.075 1.075 0 001.241-1.213l-.884-6.184a7.53 7.53 0 016.27 7.411zm0 0"/><path data-name="Path 787" d="M32.751 37.626v-3.225a1.075 1.075 0 001.078-1.075 8.6 8.6 0 10-17.2 0 1.075 1.075 0 001.075 1.075v3.225a7.525 7.525 0 1015.051 0zm-7.522-10.75a6.462 6.462 0 016.326 5.184 7.239 7.239 0 01-3.281-2.555 1.073 1.073 0 00-.788-.473h-.108a1.075 1.075 0 00-.76.315c-1.174 1.17-4.913 2.174-7.71 2.69a6.46 6.46 0 016.321-5.161zm0 16.126a5.382 5.382 0 01-5.375-5.375l-.007-3.579a24.285 24.285 0 007.353-2.455 8.98 8.98 0 003.4 2.4v3.633a5.382 5.382 0 01-5.371 5.376zm0 0"/><path data-name="Path 788" d="M11.88 20.426h-.63a1.075 1.075 0 00-1.075 1.075v12.9h2.15V22.576h2.15a1.075 1.075 0 00.76-1.835l-6.45-6.45a1.075 1.075 0 00-1.52 0l-6.45 6.45a1.075 1.075 0 00.76 1.835h2.15v11.826h2.15v-12.9A1.075 1.075 0 004.8 20.426h-.63l3.855-3.856zm0 0"/><path data-name="Path 789" d="M18.775 8.6h2.15v3.225h2.15v-4.3a1.075 1.075 0 00-1.074-1.075h-.63l3.855-3.856 3.855 3.856h-.63a1.075 1.075 0 00-1.075 1.075v6.45h2.15V8.6h2.15a1.075 1.075 0 00.76-1.835l-6.45-6.45a1.075 1.075 0 00-1.52 0l-6.45 6.45a1.075 1.075 0 00.76 1.835zm0 0"/><path data-name="Path 790" d="M50.712 14.29l-6.45-6.45a1.075 1.075 0 00-1.52 0l-6.45 6.45a1.075 1.075 0 00.76 1.835h2.15v11.826h2.15v-12.9a1.075 1.075 0 00-1.075-1.076h-.63l3.855-3.856 3.855 3.856h-.63a1.075 1.075 0 00-1.075 1.075v12.9h2.15V16.125h2.15a1.075 1.075 0 00.76-1.835zm0 0"/><path data-name="Path 791" d="M20.929 13.976h2.15v4.3h-2.15zm0 0"/><path data-name="Path 792" d="M27.38 16.126h2.15v2.15h-2.15zm0 0"/><path data-name="Path 793" d="M27.38 20.426h2.15v2.15h-2.15zm0 0"/><path data-name="Path 794" d="M20.929 20.426h2.15v2.15h-2.15zm0 0"/><path data-name="Path 795" d="M39.205 30.102h2.15v4.3h-2.15zm0 0"/><path data-name="Path 796" d="M45.656 32.252h2.15v2.15h-2.15zm0 0"/><path data-name="Path 797" d="M3.728 36.552h2.15v2.15h-2.15zm0 0"/><path data-name="Path 798" d="M10.179 36.552h2.15v4.3h-2.15zm0 0"/><path data-name="Path 799" d="M10.179 43.002h2.15v2.15h-2.15zm0 0"/><path data-name="Path 800" d="M3.728 40.852h2.15v2.15h-2.15zm0 0"/><path data-name="Path 801" d="M45.656 36.552h2.15v2.15h-2.15zm0 0"/><path data-name="Path 802" d="M45.656 40.852h2.15v2.15h-2.15zm0 0"/></g></svg>