<svg xmlns="http://www.w3.org/2000/svg" viewBox="0 0 512 512"><linearGradient id="a" gradientUnits="userSpaceOnUse" x1="48" y1="395.482" x2="272" y2="395.482"><stop offset="0" stop-color="#544cf9"/><stop offset="1" stop-color="#814cf9"/></linearGradient><path d="M271.6 344.4v-.6c-.3-4.4-4.2-7.7-8.6-7.4-1.9.1-3.7 1-5.1 2.3l-6.1 6.1c-11 10.9-28.7 10.9-39.7 0l-5-5c-17.2-17.2-45.1-17.2-62.3 0l-5 5c-11 10.9-28.7 10.9-39.7 0-12.2-12.1-30.3-16-46.4-10.1-2.9 1.1-4.9 3.7-5.2 6.8-.4 3.8-.5 7.2-.5 10.5 0 61.9 50.1 112 112 112s112-50.1 112-112c0-2.7-.2-5.2-.4-7.6h0zM160 448c-53-.1-95.9-43-96-96 0-1.1 0-2.3.1-3.6 9-1.6 18.3 1.3 24.8 7.7 17.2 17.2 45.1 17.2 62.3 0l5-5c11-10.9 28.7-10.9 39.7 0l5 5c14.6 14.5 37.2 17.1 54.6 6.2C250.1 411 209 447.9 160 448z" fill="url(#a)" stroke="#544cf9"/><linearGradient id="b" gradientUnits="userSpaceOnUse" x1="15.999" y1="320" x2="304.001" y2="320"><stop offset="0" stop-color="#544cf9"/><stop offset="1" stop-color="#814cf9"/></linearGradient><path d="M304 352c.1-32.6-10.9-64.3-31.4-89.7-18.6-23.3-44-40.3-72.6-48.7v-23c12.5-4.4 19-18.1 14.6-30.6-3.4-9.6-12.5-16-22.6-16h-64c-13.3 0-24 10.8-24 24 0 10.2 6.4 19.2 16 22.6v23C91.4 222 66 239 47.4 262.3 26.9 287.7 15.9 319.4 16 352c0 79.4 64.6 144 144 144s144-64.6 144-144zM128 160h64c4.4 0 8 3.6 8 8s-3.6 8-8 8h-64c-4.4 0-8-3.6-8-8s3.6-8 8-8zm32 320c-70.7-.1-127.9-57.3-128-128-.1-29 9.7-57.1 27.9-79.7 17.8-22.2 42.4-37.9 70-44.7 3.6-.9 6.1-4.1 6.1-7.8V192h48v27.8c0 3.7 2.5 6.9 6.1 7.8 27.6 6.7 52.2 22.5 70 44.7 18.1 22.6 28 50.8 27.9 79.7-.1 70.7-57.3 127.9-128 128h0z" fill="url(#b)" stroke="#544cf9"/><linearGradient id="c" gradientUnits="userSpaceOnUse" x1="96" y1="392" x2="112" y2="392"><stop offset="0" stop-color="#544cf9"/><stop offset="1" stop-color="#814cf9"/></linearGradient><path d="M96 384h16v16H96v-16z" fill="url(#c)" stroke="#544cf9"/><linearGradient id="d" gradientUnits="userSpaceOnUse" x1="144" y1="424" x2="160" y2="424"><stop offset="0" stop-color="#544cf9"/><stop offset="1" stop-color="#814cf9"/></linearGradient><path d="M144 416h16v16h-16v-16z" fill="url(#d)" stroke="#544cf9"/><linearGradient id="e" gradientUnits="userSpaceOnUse" x1="168" y1="376" x2="184" y2="376"><stop offset="0" stop-color="#544cf9"/><stop offset="1" stop-color="#814cf9"/></linearGradient><path d="M168 368h16v16h-16v-16z" fill="url(#e)" stroke="#544cf9"/><linearGradient id="f" gradientUnits="userSpaceOnUse" x1="200" y1="400" x2="216" y2="400"><stop offset="0" stop-color="#544cf9"/><stop offset="1" stop-color="#814cf9"/></linearGradient><path d="M200 392h16v16h-16v-16z" fill="url(#f)" stroke="#544cf9"/><linearGradient id="g" gradientUnits="userSpaceOnUse" x1="40" y1="256" x2="472" y2="256"><stop offset="0" stop-color="#544cf9"/><stop offset="1" stop-color="#814cf9"/></linearGradient><path d="M432 16H80c-22.1 0-40 17.9-40 40v168h16V56c0-13.2 10.8-24 24-24h352c13.2 0 24 10.8 24 24v400c0 13.2-10.8 24-24 24H256v16h176c22.1 0 40-17.9 40-40V56c0-22.1-17.9-40-40-40z" fill="url(#g)" stroke="#544cf9"/><linearGradient id="h" gradientUnits="userSpaceOnUse" x1="328" y1="280" x2="432" y2="280"><stop offset="0" stop-color="#544cf9"/><stop offset="1" stop-color="#814cf9"/></linearGradient><path d="M328 272h104v16H328v-16z" fill="url(#h)" stroke="#544cf9"/><linearGradient id="i" gradientUnits="userSpaceOnUse" x1="328" y1="312" x2="432" y2="312"><stop offset="0" stop-color="#544cf9"/><stop offset="1" stop-color="#814cf9"/></linearGradient><path d="M328 304h104v16H328v-16z" fill="url(#i)" stroke="#544cf9"/><linearGradient id="j" gradientUnits="userSpaceOnUse" x1="328" y1="344" x2="416" y2="344"><stop offset="0" stop-color="#544cf9"/><stop offset="1" stop-color="#814cf9"/></linearGradient><path d="M328 336h88v16h-88v-16z" fill="url(#j)" stroke="#544cf9"/><linearGradient id="k" gradientUnits="userSpaceOnUse" x1="384" y1="248" x2="432" y2="248"><stop offset="0" stop-color="#544cf9"/><stop offset="1" stop-color="#814cf9"/></linearGradient><path d="M384 240h48v16h-48v-16z" fill="url(#k)" stroke="#544cf9"/><linearGradient id="l" gradientUnits="userSpaceOnUse" x1="352" y1="248" x2="368" y2="248"><stop offset="0" stop-color="#544cf9"/><stop offset="1" stop-color="#814cf9"/></linearGradient><path d="M352 240h16v16h-16v-16z" fill="url(#l)" stroke="#544cf9"/><linearGradient id="m" gradientUnits="userSpaceOnUse" x1="240" y1="144" x2="432" y2="144"><stop offset="0" stop-color="#544cf9"/><stop offset="1" stop-color="#814cf9"/></linearGradient><path d="M272 112v19.1l-27.6 13.8c-2.7 1.4-4.4 4.1-4.4 7.2v40c0 3 1.7 5.8 4.4 7.2l27.6 13.8V232h16v-19.1l24-12 28.4 14.2c2.3 1.1 4.9 1.1 7.2 0l30.3-15.2H400v-16h-16v-27.1l25.9-12.9H432v-16h-16V96c0-3-1.7-5.8-4.4-7.2L384 75.1V56h-16v19.1L342.1 88H320v16h16v27.1l-24 12-24-12V112h-16zm96 75.1l-24 12-24-12V157l24-12 24 12v30.1zm-16-86.2l24-12 24 12V131l-24 12-24-12v-30.1zm-48 86.2l-24 12-24-12V157l24-12 24 12v30.1z" fill="url(#m)" stroke="#544cf9"/><linearGradient id="n" gradientUnits="userSpaceOnUse" x1="320" y1="420" x2="432" y2="420"><stop offset="0" stop-color="#544cf9"/><stop offset="1" stop-color="#814cf9"/></linearGradient><path d="M320 456h112v-16h-16v-40h-16v40h-16v-56h-16v56h-16v-24h-16v24h-16v16z" fill="url(#n)" stroke="#544cf9"/><linearGradient id="o" gradientUnits="userSpaceOnUse" x1="80" y1="96" x2="216" y2="96"><stop offset="0" stop-color="#544cf9"/><stop offset="1" stop-color="#814cf9"/></linearGradient><path d="M80 56v80h16v-16h88v-16H96V88h120V72H96V56H80z" fill="url(#o)" stroke="#544cf9"/><linearGradient id="p" gradientUnits="userSpaceOnUse" x1="200" y1="112" x2="216" y2="112"><stop offset="0" stop-color="#544cf9"/><stop offset="1" stop-color="#814cf9"/></linearGradient><path d="M200 104h16v16h-16v-16z" fill="url(#p)" stroke="#544cf9"/><linearGradient id="q" gradientUnits="userSpaceOnUse" x1="232" y1="80" x2="248" y2="80"><stop offset="0" stop-color="#544cf9"/><stop offset="1" stop-color="#814cf9"/></linearGradient><path d="M232 72h16v16h-16V72z" fill="url(#q)" stroke="#544cf9"/><linearGradient id="r" gradientUnits="userSpaceOnUse" x1="71.716" y1="269.162" x2="130.459" y2="269.162"><stop offset="0" stop-color="#544cf9"/><stop offset="1" stop-color="#814cf9"/></linearGradient><path d="M130.5 260.6l-4.9-15.2c-21.3 6.9-40.1 20-53.8 37.7l12.6 9.9c11.7-15.2 27.8-26.5 46.1-32.4h0z" fill="url(#r)" stroke="#544cf9"/><linearGradient id="s" gradientUnits="userSpaceOnUse" x1="53.4" y1="311.38" x2="74.81" y2="311.38"><stop offset="0" stop-color="#544cf9"/><stop offset="1" stop-color="#814cf9"/></linearGradient><path d="M74.8 307.7l-14.2-7.4c-2.9 5.5-5.3 11.3-7.2 17.2l15.2 4.9c1.7-5 3.7-10 6.2-14.7z" fill="url(#s)" stroke="#544cf9"/><text transform="translate(206.62 259.022)" font-size="12" font-family="MyriadPro-Regular" stroke="#544cf9">har cheez me itna</text></svg>