<svg xmlns="http://www.w3.org/2000/svg" viewBox="0 0 512 512"><linearGradient id="a" gradientUnits="userSpaceOnUse" x1="354.922" y1="57.67" x2="391.348" y2="57.67"><stop offset="0" stop-color="#544cf9"/><stop offset="1" stop-color="#814cf9"/></linearGradient><path d="M387.8 57.1c-6.8-4.5-14-8.8-21.2-12.6-3.9-2-8.7-.5-10.7 3.3-2 3.9-.5 8.7 3.4 10.7 6.8 3.5 13.4 7.5 19.8 11.7 1.4.9 2.9 1.3 4.4 1.3 2.6 0 5.1-1.2 6.6-3.6 2.3-3.4 1.4-8.4-2.3-10.8z" fill="url(#a)"/><linearGradient id="b" gradientUnits="userSpaceOnUse" x1="120.649" y1="57.67" x2="157.08" y2="57.67"><stop offset="0" stop-color="#544cf9"/><stop offset="1" stop-color="#814cf9"/></linearGradient><path d="M156.2 47.9c-2-3.9-6.8-5.4-10.7-3.3-7.2 3.8-14.4 8-21.2 12.6-3.7 2.4-4.7 7.4-2.2 11 1.5 2.3 4.1 3.6 6.6 3.6 1.5 0 3-.4 4.4-1.3 6.4-4.2 13.1-8.2 19.8-11.7 3.8-2.2 5.3-7 3.3-10.9z" fill="url(#b)"/><linearGradient id="c" gradientUnits="userSpaceOnUse" x1="445.973" y1="363.892" x2="473.063" y2="363.892"><stop offset="0" stop-color="#544cf9"/><stop offset="1" stop-color="#814cf9"/></linearGradient><path d="M468.5 346.2c-4-1.9-8.7-.1-10.6 3.8-3.2 6.9-6.9 13.8-10.8 20.3-2.3 3.8-1 8.7 2.7 10.9 1.3.8 2.7 1.1 4.1 1.1 2.7 0 5.3-1.4 6.8-3.9 4.2-7 8.1-14.4 11.6-21.8 1.9-3.8.1-8.6-3.8-10.4z" fill="url(#c)"/><linearGradient id="d" gradientUnits="userSpaceOnUse" x1="454.206" y1="163.526" x2="479.721" y2="163.526"><stop offset="0" stop-color="#544cf9"/><stop offset="1" stop-color="#814cf9"/></linearGradient><path d="M479.2 171.6c-2.9-7.6-6.2-15.2-9.9-22.6-2-3.9-6.8-5.5-10.7-3.5-3.9 2-5.5 6.8-3.5 10.7 3.4 6.8 6.6 13.9 9.3 21.1 1.2 3.2 4.2 5.1 7.4 5.1.9 0 1.9-.2 2.8-.5 4.1-1.6 6.2-6.2 4.6-10.3z" fill="url(#d)"/><linearGradient id="e" gradientUnits="userSpaceOnUse" x1="329.599" y1="466.956" x2="367.344" y2="466.956"><stop offset="0" stop-color="#544cf9"/><stop offset="1" stop-color="#814cf9"/></linearGradient><path d="M366.5 458.6c-2-3.9-6.8-5.5-10.7-3.5-6.9 3.5-13.9 6.6-21.1 9.3-4.1 1.6-6.2 6.1-4.6 10.3 1.2 3.2 4.2 5.1 7.4 5.1.9 0 1.9-.2 2.8-.5 7.6-2.9 15.2-6.2 22.6-9.9 4-2.1 5.6-6.9 3.6-10.8z" fill="url(#e)"/><linearGradient id="f" gradientUnits="userSpaceOnUse" x1="144.649" y1="466.961" x2="182.395" y2="466.961"><stop offset="0" stop-color="#544cf9"/><stop offset="1" stop-color="#814cf9"/></linearGradient><path d="M177.3 464.3c-7.1-2.7-14.2-5.8-21.1-9.3-3.9-2-8.7-.4-10.7 3.5s-.4 8.7 3.5 10.7c7.3 3.7 15 7 22.6 9.9.9.3 1.9.5 2.8.5 3.2 0 6.2-2 7.4-5.1 1.6-4-.4-8.6-4.5-10.2z" fill="url(#f)"/><linearGradient id="g" gradientUnits="userSpaceOnUse" x1="41.261" y1="65.121" x2="136.701" y2="65.121"><stop offset="0" stop-color="#544cf9"/><stop offset="1" stop-color="#814cf9"/></linearGradient><path d="M89 17.4c-26.3 0-47.7 21.4-47.7 47.7s21.4 47.7 47.7 47.7 47.7-21.4 47.7-47.7S115.3 17.4 89 17.4zm0 79.5c-17.5 0-31.8-14.3-31.8-31.8S71.4 33.3 89 33.3s31.8 14.3 31.8 31.8S106.5 96.9 89 96.9z" fill="url(#g)"/><linearGradient id="h" gradientUnits="userSpaceOnUse" x1="17.401" y1="120.793" x2="160.56" y2="120.793"><stop offset="0" stop-color="#544cf9"/><stop offset="1" stop-color="#814cf9"/></linearGradient><path d="M120.8 81h-.2c-2.5 0-4.8 1.2-6.3 3.2C108.2 92.3 99 96.9 89 96.9s-19.2-4.6-25.3-12.7c-1.5-2-4.1-3.2-6.5-3.2-21.9 0-39.8 17.8-39.8 39.8v31.8c0 4.4 3.6 8 8 8h127.3c4.4 0 8-3.6 8-8v-31.8c-.1-21.9-18-39.8-39.9-39.8zm23.9 63.7H33.3v-23.9c0-12 8.9-21.9 20.5-23.6 9.1 10 21.6 15.7 35.2 15.7 13.5 0 26.1-5.7 35.2-15.7 11.6 1.6 20.5 11.6 20.5 23.6v23.9z" fill="url(#h)"/><linearGradient id="i" gradientUnits="userSpaceOnUse" x1="375.3" y1="65.121" x2="470.739" y2="65.121"><stop offset="0" stop-color="#544cf9"/><stop offset="1" stop-color="#814cf9"/></linearGradient><path d="M423 17.4c-26.3 0-47.7 21.4-47.7 47.7s21.4 47.7 47.7 47.7 47.7-21.4 47.7-47.7-21.4-47.7-47.7-47.7zm0 79.5c-17.5 0-31.8-14.3-31.8-31.8s14.3-31.8 31.8-31.8 31.8 14.3 31.8 31.8-14.2 31.8-31.8 31.8z" fill="url(#i)"/><linearGradient id="j" gradientUnits="userSpaceOnUse" x1="351.439" y1="120.794" x2="494.597" y2="120.794"><stop offset="0" stop-color="#544cf9"/><stop offset="1" stop-color="#814cf9"/></linearGradient><path d="M454.8 81h-.2c-2.5 0-4.8 1.2-6.3 3.2-6.1 8.1-15.3 12.7-25.3 12.7-9.9 0-19.2-4.6-25.3-12.7-1.5-2-4.1-3.2-6.5-3.2-21.9 0-39.8 17.8-39.8 39.8v31.8c0 4.4 3.6 8 8 8h127.3c4.4 0 8-3.6 8-8v-31.8c-.1-21.9-17.9-39.8-39.9-39.8zm23.9 63.7H367.3v-23.9c0-12 8.9-21.9 20.5-23.6 9.1 10 21.6 15.7 35.2 15.7 13.5 0 26.1-5.7 35.2-15.7 11.6 1.6 20.5 11.6 20.5 23.6v23.9z" fill="url(#j)"/><linearGradient id="k" gradientUnits="userSpaceOnUse" x1="41.261" y1="399.159" x2="136.701" y2="399.159"><stop offset="0" stop-color="#544cf9"/><stop offset="1" stop-color="#814cf9"/></linearGradient><path d="M89 351.4c-26.3 0-47.7 21.4-47.7 47.7s21.4 47.7 47.7 47.7 47.7-21.4 47.7-47.7-21.4-47.7-47.7-47.7zm0 79.6c-17.5 0-31.8-14.3-31.8-31.8s14.3-31.8 31.8-31.8 31.8 14.3 31.8 31.8S106.5 431 89 431z" fill="url(#k)"/><linearGradient id="l" gradientUnits="userSpaceOnUse" x1="17.4" y1="454.833" x2="160.56" y2="454.833"><stop offset="0" stop-color="#544cf9"/><stop offset="1" stop-color="#814cf9"/></linearGradient><path d="M120.8 415.1h-.2c-2.5 0-4.8 1.2-6.3 3.2-6.2 8-15.4 12.7-25.3 12.7s-19.2-4.6-25.3-12.7c-1.5-2-4.1-3.2-6.5-3.2-21.9 0-39.8 17.8-39.8 39.8v31.8c0 4.4 3.6 8 8 8h127.3c4.4 0 8-3.6 8-8v-31.8c-.1-22-18-39.8-39.9-39.8zm23.9 63.6H33.3v-23.9c0-12 8.9-21.9 20.5-23.6 9.1 10 21.6 15.7 35.2 15.7 13.5 0 26.1-5.7 35.2-15.7 11.6 1.6 20.5 11.6 20.5 23.6v23.9z" fill="url(#l)"/><linearGradient id="m" gradientUnits="userSpaceOnUse" x1="375.3" y1="399.159" x2="470.739" y2="399.159"><stop offset="0" stop-color="#544cf9"/><stop offset="1" stop-color="#814cf9"/></linearGradient><path d="M423 351.4c-26.3 0-47.7 21.4-47.7 47.7s21.4 47.7 47.7 47.7 47.7-21.4 47.7-47.7c0-26.3-21.4-47.7-47.7-47.7zm0 79.6c-17.5 0-31.8-14.3-31.8-31.8s14.3-31.8 31.8-31.8 31.8 14.3 31.8 31.8S440.6 431 423 431z" fill="url(#m)"/><linearGradient id="n" gradientUnits="userSpaceOnUse" x1="351.439" y1="454.833" x2="494.597" y2="454.833"><stop offset="0" stop-color="#544cf9"/><stop offset="1" stop-color="#814cf9"/></linearGradient><path d="M454.8 415.1h-.2c-2.5 0-4.8 1.2-6.3 3.2-6.1 8-15.3 12.7-25.3 12.7-9.9 0-19.2-4.6-25.3-12.7-1.5-2-4.1-3.2-6.5-3.2-21.9 0-39.8 17.8-39.8 39.8v31.8c0 4.4 3.6 8 8 8h127.3c4.4 0 8-3.6 8-8v-31.8c-.1-22-17.9-39.8-39.9-39.8zm23.9 63.6H367.3v-23.9c0-12 8.9-21.9 20.5-23.6 9.1 10 21.6 15.7 35.2 15.7 13.5 0 26.1-5.7 35.2-15.7 11.6 1.6 20.5 11.6 20.5 23.6v23.9z" fill="url(#n)"/><linearGradient id="o" gradientUnits="userSpaceOnUse" x1="270.279" y1="30.654" x2="329.739" y2="30.654"><stop offset="0" stop-color="#544cf9"/><stop offset="1" stop-color="#814cf9"/></linearGradient><path d="M324 27.3c-14.6-4.4-29.8-7.3-45.1-8.8-4.4-.4-8.3 2.8-8.7 7.2-.4 4.4 2.8 8.3 7.2 8.7 14.2 1.4 28.4 4.1 42 8.2.8.2 1.5.3 2.3.3 3.4 0 6.6-2.2 7.6-5.7 1.4-4.3-1-8.7-5.3-9.9z" fill="url(#o)"/><linearGradient id="p" gradientUnits="userSpaceOnUse" x1="182.349" y1="30.638" x2="241.809" y2="30.638"><stop offset="0" stop-color="#544cf9"/><stop offset="1" stop-color="#814cf9"/></linearGradient><path d="M233.1 18.5c-15.3 1.5-30.4 4.4-45.1 8.7-4.2 1.2-6.6 5.7-5.4 9.9 1 3.5 4.2 5.7 7.6 5.7.7 0 1.5-.1 2.3-.3 13.7-4.1 27.8-6.8 42-8.2 4.4-.4 7.6-4.3 7.2-8.7s-4.2-7.5-8.6-7.1z" fill="url(#p)"/><linearGradient id="q" gradientUnits="userSpaceOnUse" x1="475.399" y1="264.522" x2="494.599" y2="264.522"><stop offset="0" stop-color="#544cf9"/><stop offset="1" stop-color="#814cf9"/></linearGradient><path d="M493.5 233.2c-.4-4.4-4.3-7.5-8.7-7.2-4.4.4-7.6 4.3-7.2 8.7.7 7 1 14.2 1 21.3 0 12.6-1.1 25.3-3.2 37.7-.7 4.3 2.2 8.4 6.5 9.2.4.1.9.1 1.3.1 3.8 0 7.2-2.7 7.8-6.6 2.3-13.3 3.4-26.8 3.4-40.4.2-7.6-.2-15.2-.9-22.8z" fill="url(#q)"/><linearGradient id="r" gradientUnits="userSpaceOnUse" x1="32.287" y1="163.526" x2="57.8" y2="163.526"><stop offset="0" stop-color="#544cf9"/><stop offset="1" stop-color="#814cf9"/></linearGradient><path d="M53.4 145.5c-3.9-2-8.7-.4-10.7 3.5-3.7 7.3-7 14.9-9.9 22.6-1.6 4.1.5 8.7 4.6 10.3.9.3 1.9.5 2.8.5 3.2 0 6.2-2 7.4-5.1 2.7-7.1 5.8-14.2 9.3-21.1 2-3.9.4-8.7-3.5-10.7z" fill="url(#r)"/><linearGradient id="s" gradientUnits="userSpaceOnUse" x1="17.401" y1="264.471" x2="36.596" y2="264.471"><stop offset="0" stop-color="#544cf9"/><stop offset="1" stop-color="#814cf9"/></linearGradient><path d="M36.5 293.7c-2.1-12.4-3.2-25-3.2-37.7 0-7.1.3-14.3 1-21.3.4-4.4-2.8-8.3-7.2-8.7-4.3-.4-8.3 2.8-8.7 7.2-.7 7.5-1.1 15.2-1.1 22.8 0 13.5 1.1 27.1 3.4 40.3.7 3.9 4 6.6 7.8 6.6.4 0 .9 0 1.3-.1 4.5-.7 7.4-4.8 6.7-9.1z" fill="url(#s)"/><linearGradient id="t" gradientUnits="userSpaceOnUse" x1="38.924" y1="363.892" x2="66.015" y2="363.892"><stop offset="0" stop-color="#544cf9"/><stop offset="1" stop-color="#814cf9"/></linearGradient><path d="M64.9 370.3c-3.9-6.6-7.6-13.4-10.8-20.3-1.9-4-6.6-5.7-10.6-3.8-4 1.9-5.7 6.6-3.8 10.6 3.5 7.4 7.4 14.7 11.6 21.8 1.5 2.5 4.1 3.9 6.8 3.9 1.4 0 2.8-.4 4.1-1.1 3.7-2.4 4.9-7.3 2.7-11.1z" fill="url(#t)"/><linearGradient id="u" gradientUnits="userSpaceOnUse" x1="208.28" y1="311.674" x2="383.252" y2="311.674"><stop offset="0" stop-color="#544cf9"/><stop offset="1" stop-color="#814cf9"/></linearGradient><path d="M367.3 224.2H224.2c-8.8 0-15.9 7.1-15.9 15.9v95.4c0 8.8 7.1 15.9 15.9 15.9h76.2l45.4 45.4c1.5 1.5 3.6 2.3 5.6 2.3 1 0 2.1-.2 3-.6 3-1.2 4.9-4.1 4.9-7.3v-39.8h7.9c8.8 0 15.9-7.1 15.9-15.9v-95.4c.2-8.8-7-15.9-15.8-15.9zm0 111.3h-15.9c-4.4 0-8 3.6-8 8V372l-34.1-34.1c-1.5-1.5-3.5-2.3-5.6-2.3h-79.5v-95.4h143.1v95.3z" fill="url(#u)"/><linearGradient id="v" gradientUnits="userSpaceOnUse" x1="120.794" y1="263.954" x2="295.767" y2="263.954"><stop offset="0" stop-color="#544cf9"/><stop offset="1" stop-color="#814cf9"/></linearGradient><path d="M279.8 176.5H136.7c-8.8 0-15.9 7.1-15.9 15.9v95.4c0 8.8 7.1 15.9 15.9 15.9h7.9v39.8c0 3.2 1.9 6.1 4.9 7.3 1 .4 2 .6 3 .6 2.1 0 4.1-.8 5.6-2.3l45.4-45.4h12.6c4.4 0 8-3.6 8-8V240h63.6c4.4 0 8-3.6 8-8v-39.8c.1-8.6-7.1-15.7-15.9-15.7zm.1 47.7h-55.7c-8.8 0-15.9 7.1-15.9 15.9v47.7h-8c-2.1 0-4.1.8-5.6 2.3l-34.1 34.1v-28.5c0-4.4-3.6-8-8-8h-15.9v-95.4h143.1v31.9z" fill="url(#v)"/><linearGradient id="w" gradientUnits="userSpaceOnUse" x1="240.094" y1="271.906" x2="303.72" y2="271.906"><stop offset="0" stop-color="#544cf9"/><stop offset="1" stop-color="#814cf9"/></linearGradient><path d="M295.8 264H248c-4.4 0-8 3.6-8 8s3.6 8 8 8h47.7c4.4 0 8-3.6 8-8 0-4.5-3.5-8-7.9-8z" fill="url(#w)"/><linearGradient id="x" gradientUnits="userSpaceOnUse" x1="319.627" y1="271.906" x2="351.44" y2="271.906"><stop offset="0" stop-color="#544cf9"/><stop offset="1" stop-color="#814cf9"/></linearGradient><path d="M343.5 264h-15.9c-4.4 0-8 3.6-8 8s3.6 8 8 8h15.9c4.4 0 8-3.6 8-8-.1-4.5-3.6-8-8-8z" fill="url(#x)"/><linearGradient id="y" gradientUnits="userSpaceOnUse" x1="287.814" y1="303.72" x2="351.44" y2="303.72"><stop offset="0" stop-color="#544cf9"/><stop offset="1" stop-color="#814cf9"/></linearGradient><path d="M343.5 295.8h-47.7c-4.4 0-8 3.6-8 8s3.6 8 8 8h47.7c4.4 0 8-3.6 8-8-.1-4.5-3.6-8-8-8z" fill="url(#y)"/><linearGradient id="z" gradientUnits="userSpaceOnUse" x1="240.093" y1="303.72" x2="271.906" y2="303.72"><stop offset="0" stop-color="#544cf9"/><stop offset="1" stop-color="#814cf9"/></linearGradient><path d="M264 295.8h-16c-4.4 0-8 3.6-8 8s3.6 8 8 8h16c4.4 0 8-3.6 8-8-.1-4.5-3.7-8-8-8z" fill="url(#z)"/><linearGradient id="A" gradientUnits="userSpaceOnUse" x1="220.282" y1="485.817" x2="291.593" y2="485.817"><stop offset="0" stop-color="#544cf9"/><stop offset="1" stop-color="#814cf9"/></linearGradient><path d="M291.5 484.1c-.5-4.4-4.5-7.5-8.8-7-17.6 2.1-35.8 2.1-53.5 0-4.4-.5-8.3 2.6-8.8 6.9-.5 4.4 2.6 8.3 7 8.8 9.5 1.1 19.1 1.7 28.7 1.7 9.6 0 19.2-.6 28.6-1.7 4.3-.4 7.4-4.4 6.8-8.7z" fill="url(#A)"/></svg>