<svg xmlns="http://www.w3.org/2000/svg" xmlns:xlink="http://www.w3.org/1999/xlink" width="100.51" height="100.502" viewBox="0 0 100.51 100.502"><defs><style>.a,.b{opacity:0.76;}.b{fill:url(#a);}.c{fill:#fff;}</style><linearGradient id="a" x1="0.5" x2="0.5" y2="1" gradientUnits="objectBoundingBox"><stop offset="0" stop-color="#544cf9"/><stop offset="1" stop-color="#814cf9"/></linearGradient></defs><g class="a"><path class="b" d="M0,0H97a0,0,0,0,1,0,0V69a7,7,0,0,1-7,7H7a7,7,0,0,1-7-7V0A0,0,0,0,1,0,0Z" transform="translate(2 23.454)"/><g transform="translate(0 0.003)"><path d="M60.306,21.809H3.357V11.034c0-.447.01-.906,0-1.372a8.891,8.891,0,0,1,.221-2.73,5.057,5.057,0,0,1,3.97-3.469A9.422,9.422,0,0,1,9.13,3.385H36.856a1.675,1.675,0,0,0,0-3.35H9.154A12.379,12.379,0,0,0,6.976.162,8.282,8.282,0,0,0,4.062,1.251a8.454,8.454,0,0,0-3.683,4.7,11.717,11.717,0,0,0-.37,3.772c.007.4.015.8,0,1.248V43.591a1.675,1.675,0,1,0,3.35,0V25.159H60.306a1.675,1.675,0,0,0,0-3.35Z" transform="translate(0 -0.035)"/></g><g transform="translate(58.631 0)"><path d="M321.91,91.674V23.479a1.677,1.677,0,0,0-1.658-1.678,1.671,1.671,0,0,0,1.657-1.672L321.9,8.236A8.358,8.358,0,0,0,314.622.109a33.724,33.724,0,0,0-3.4-.084c-.58.007-1.166,0-1.774,0H281.709a1.675,1.675,0,1,0,0,3.35h27.7c.616,0,1.229.01,1.841,0,1.079-.01,2.09-.017,2.995.059a4.969,4.969,0,0,1,3.119,1.725,5.047,5.047,0,0,1,1.186,3.1l.007,11.866A1.671,1.671,0,0,0,320.2,21.8H288.409a1.675,1.675,0,1,0,0,3.35h30.15V91.7a5.75,5.75,0,0,1-.2,1.837,4.829,4.829,0,0,1-1.886,2.794,1.675,1.675,0,0,0,1.869,2.78A8.15,8.15,0,0,0,321.57,94.5,8.978,8.978,0,0,0,321.91,91.674Z" transform="translate(-280.034 -0.019)"/></g><g transform="translate(45.232 0.003)"><path d="M221.059.035h-3.35a1.675,1.675,0,0,0,0,3.35h3.35a1.675,1.675,0,0,0,0-3.35Z" transform="translate(-216.034 -0.035)"/></g><g transform="translate(0.003 58.634)"><path d="M10.067,318.585H8.662a6.64,6.64,0,0,1-1.027-.06,4.983,4.983,0,0,1-3.107-1.747A5.178,5.178,0,0,1,3.474,314.6a11.846,11.846,0,0,1-.107-2.2c0-.39.007-.786,0-1.144V281.742a1.675,1.675,0,0,0-3.35,0V311.3c.007.36,0,.719,0,1.074a14.242,14.242,0,0,0,.173,2.9,8.579,8.579,0,0,0,1.765,3.66,8.3,8.3,0,0,0,5.229,2.918,10.646,10.646,0,0,0,1.62.09h1.263a1.675,1.675,0,1,0,0-3.35Z" transform="translate(-0.013 -280.067)"/></g><g transform="translate(43.557 97.152)"><path d="M253.258,464.035H209.709a1.675,1.675,0,1,0,0,3.35h43.549a1.675,1.675,0,1,0,0-3.35Z" transform="translate(-208.034 -464.035)"/></g><g transform="translate(23.457 97.152)"><path d="M117.059,464.035h-3.35a1.675,1.675,0,1,0,0,3.35h3.35a1.675,1.675,0,1,0,0-3.35Z" transform="translate(-112.034 -464.035)"/></g><g class="a" transform="translate(7.342 7.206)"><path d="M40.294,34.435a5.228,5.228,0,1,0,5.228,5.228A5.233,5.233,0,0,0,40.294,34.435Zm0,7.105a1.878,1.878,0,1,1,1.878-1.878A1.88,1.88,0,0,1,40.294,41.54Z" transform="translate(-35.066 -34.435)"/></g><g class="a" transform="translate(20.742 7.206)"><path d="M104.294,34.435a5.228,5.228,0,1,0,5.228,5.228A5.233,5.233,0,0,0,104.294,34.435Zm0,7.105a1.878,1.878,0,1,1,1.878-1.878A1.88,1.88,0,0,1,104.294,41.54Z" transform="translate(-99.066 -34.435)"/></g><g class="a" transform="translate(34.142 7.206)"><path d="M168.294,34.435a5.228,5.228,0,1,0,5.228,5.228A5.233,5.233,0,0,0,168.294,34.435Zm0,7.105a1.878,1.878,0,1,1,1.878-1.878A1.88,1.88,0,0,1,168.294,41.54Z" transform="translate(-163.066 -34.435)"/></g><g transform="translate(8.578 33.689)"><path class="c" d="M61.76,160.923a20.789,20.789,0,1,0,20.79,20.788A20.813,20.813,0,0,0,61.76,160.923Zm0,38.228a17.439,17.439,0,1,1,17.44-17.44A17.457,17.457,0,0,1,61.758,199.151Z" transform="translate(-40.97 -160.923)"/></g><g transform="translate(20.107 41.843)"><path class="c" d="M118.7,211.318,98.525,200.079a1.674,1.674,0,0,0-2.491,1.464V224.02a1.676,1.676,0,0,0,2.491,1.464L118.7,214.246a1.675,1.675,0,0,0,0-2.928Zm-19.317,9.851V204.394l15.06,8.388Z" transform="translate(-96.034 -199.868)"/></g><g transform="translate(8.382 80.402)"><path class="c" d="M80.233,385.71H50.084c0-1.675-.75-1.675-1.675-1.675s-1.675,0-1.675,1.675H41.709a1.675,1.675,0,1,0,0,3.35h5.025c0,1.675.75,1.675,1.675,1.675s1.675,0,1.675-1.675h30.15a1.675,1.675,0,1,0,0-3.35Z" transform="translate(-40.034 -384.035)"/></g><g transform="translate(56.956 33.503)"><path class="c" d="M305.533,160.035H273.709a1.676,1.676,0,0,0-1.675,1.675v15.075a1.676,1.676,0,0,0,1.675,1.675h31.825a1.676,1.676,0,0,0,1.675-1.675V161.71A1.676,1.676,0,0,0,305.533,160.035Zm-1.675,15.075H275.384V163.385h28.475Z" transform="translate(-272.034 -160.035)"/></g><g transform="translate(56.956 55.278)"><path class="c" d="M305.533,264.035H273.709a1.675,1.675,0,0,0,0,3.35h31.825a1.675,1.675,0,1,0,0-3.35Z" transform="translate(-272.034 -264.035)"/></g><g transform="translate(56.956 61.977)"><path class="c" d="M305.533,296.035H273.709a1.675,1.675,0,0,0,0,3.35h31.825a1.675,1.675,0,1,0,0-3.35Z" transform="translate(-272.034 -296.035)"/></g><g transform="translate(56.956 68.677)"><path class="c" d="M305.533,328.035H273.709a1.675,1.675,0,0,0,0,3.35h31.825a1.675,1.675,0,1,0,0-3.35Z" transform="translate(-272.034 -328.035)"/></g><g transform="translate(56.956 75.377)"><path class="c" d="M305.533,360.035H273.709a1.675,1.675,0,0,0,0,3.35h31.825a1.675,1.675,0,1,0,0-3.35Z" transform="translate(-272.034 -360.035)"/></g><g transform="translate(56.956 82.077)"><path class="c" d="M298.834,392.035H273.709a1.675,1.675,0,0,0,0,3.35h25.125a1.675,1.675,0,0,0,0-3.35Z" transform="translate(-272.034 -392.035)"/></g></g></svg>